<svg width="39" height="35" viewBox="0 0 39 35" fill="none" xmlns="http://www.w3.org/2000/svg">
<path fill-rule="evenodd" clip-rule="evenodd" d="M6.70833 30.475C7.78167 31.1075 9.34375 31.9796 11.0112 32.7367C13.1579 33.7142 15.4771 34.5096 17.25 34.5096C18.4958 34.5096 20.4029 33.8867 22.5688 32.8804C27.3125 30.6667 33.4363 26.6417 36.3304 24.3704C37.26 23.6421 37.8733 23.0671 38.0842 22.7604C38.2854 22.4729 38.3333 22.2142 38.3333 22.0513C38.3333 21.2175 37.5667 20.3071 36.8192 19.9333C35.6404 19.3488 34.8258 19.1858 33.5513 19.1763C32.2671 19.1763 30.5325 19.3392 29.3538 19.9333H29.3346C27.6958 20.815 25.3671 22.2717 23.8913 23.2204C23.7242 22.3543 23.2607 21.5735 22.5803 21.0121C21.9 20.4507 21.0454 20.1438 20.1633 20.1442H18.1987C16.1479 17.9688 13.2921 16.3875 10.3213 16.3875C10.3213 16.3875 8.04042 16.3492 6.70833 16.33V15.3525C6.70833 14.8254 6.27708 14.3942 5.75 14.3942H0.958333C0.43125 14.3942 0 14.8254 0 15.3525V30.705C0 31.2321 0.43125 31.6633 0.958333 31.6633H5.75C6.27708 31.6633 6.70833 31.2321 6.70833 30.705V30.4846V30.475ZM22.0417 23.9775V23.9392C22.0417 22.9042 21.1983 22.0608 20.1633 22.0608H17.7771C17.6408 22.0619 17.5059 22.0334 17.3818 21.9771C17.2577 21.9208 17.1473 21.8382 17.0583 21.735C15.3525 19.7992 12.8992 18.2946 10.3213 18.3042L6.70833 18.2467V28.2421C7.56125 28.7788 9.58333 29.9863 11.8067 31.0021C13.685 31.8646 15.6975 32.6025 17.25 32.6025C18.3042 32.6025 19.9142 32.0084 21.7542 31.1458C26.3733 28.9896 32.3342 25.07 35.1517 22.8658C35.6021 22.5208 36.0238 22.1279 36.2825 21.8883C36.1867 21.7829 36.0717 21.6967 35.9567 21.6488C35.0846 21.2175 34.4808 21.1025 33.5321 21.1025C32.5258 21.1025 31.1554 21.1888 30.2163 21.6488C27.6958 22.9904 23.5175 25.7313 23.5175 25.7313C23.3642 25.8367 23.1821 25.8846 23 25.8846L13.2346 25.9421C12.7075 25.9421 12.2762 25.5204 12.2667 24.9933C12.2667 24.4663 12.6883 24.035 13.2154 24.0254L22.0321 23.9775H22.0417ZM4.79167 16.3013V29.7371H1.91667V16.3013H4.79167ZM25.6162 14.8925C26.7087 16.2821 28.0217 17.4896 29.2579 18.1125C29.5262 18.2467 29.8425 18.2467 30.1108 18.1125C32.0754 17.1638 33.9633 15.0171 35.1421 12.8896C35.9567 11.4138 36.4263 9.9571 36.4263 8.91252C36.4071 6.63168 34.6054 4.79168 32.4396 4.79168C31.9892 4.79168 31.5579 4.86835 31.1458 5.0121C31.05 2.2521 28.6925 1.54962e-05 25.8079 1.54962e-05C24.2554 1.54962e-05 22.7988 0.661266 21.8021 1.75377C21.2927 1.19936 20.6735 0.757102 19.9838 0.455162C19.2941 0.153222 18.5491 -0.00178436 17.7962 1.54962e-05C14.8542 1.54962e-05 12.4583 2.34793 12.4583 5.1846V5.20377C12.4583 6.71793 13.2058 8.67293 14.4229 10.58C16.1862 13.3304 18.8983 16.0042 21.3996 17.1638C21.6583 17.2788 21.9554 17.2788 22.2142 17.1638C23.46 16.5696 24.6004 15.8029 25.6067 14.8925H25.6162ZM34.5 8.9221C34.5 9.7271 34.0879 10.8388 33.4554 11.9696C32.5546 13.5988 31.1842 15.2758 29.6988 16.1671C28.3475 15.3238 26.9675 13.7233 26.0283 12.1038C25.3767 10.9825 24.9263 9.85168 24.9167 8.96043C24.9646 7.78168 25.875 6.82335 26.9771 6.82335C27.7533 6.82335 28.4625 7.30252 28.8171 8.03085C28.98 8.36627 29.325 8.58668 29.6988 8.5771C30.0725 8.5771 30.4079 8.3471 30.5613 8.0021C30.8967 7.22585 31.625 6.71793 32.43 6.71793C33.5704 6.71793 34.4904 7.72418 34.5 8.9221ZM29.2004 5.59668C29.2196 5.46252 29.2292 5.31876 29.2292 5.1846C29.2292 3.38293 27.6767 1.92627 25.8079 1.92627C24.4567 1.92627 23.2204 2.68335 22.6742 3.88127C22.5208 4.21668 22.1758 4.4371 21.8021 4.4371C21.4283 4.4371 21.0929 4.21668 20.93 3.88127C20.3838 2.69293 19.1475 1.92627 17.7962 1.92627C15.9275 1.92627 14.375 3.39252 14.375 5.19418V5.21335C14.375 6.44002 15.0458 8.0021 16.0425 9.5546C17.5087 11.8546 19.7033 14.1163 21.8021 15.2279C22.7892 14.7104 23.7092 14.0588 24.5142 13.3017C24.4662 13.225 24.4183 13.1388 24.3704 13.0621C23.5175 11.5958 23 10.0913 23 8.9221V8.88377C23.0863 6.66043 24.8688 4.8971 26.9771 4.8971C27.7821 4.8971 28.5487 5.14627 29.1908 5.59668H29.2004Z" fill="currentColor"/>
</svg>
